#!OML:ASF E:\id_vita\Project 1\Capture day 1\Session 1\Female.ASF
:FULLY-SPECIFIED
:DEGREES
949
root 10.7846 15.7109 -2.26096 332.239 -85.4824 -288.562
lowerback 12.7518 -1.35479 -3.17846
upperback 7.49748 -2.41204 1.56822
thorax 0.92765 -1.46476 3.69951
lowerneck -6.95734 1.06213 -3.47322
upperneck -21.7608 1.89883 7.85325
head -5.51668 0.239239 3.09149
rclavicle 4.87768e-014 6.01945e-014
rhumerus -8.43726 39.2194 -98.3345
rradius 91.3099
rwrist -23.7534
rhand -36.7174 -0.0416538
rfingers 7.12502
rthumb -9.80201 -29.7935
lclavicle 4.87768e-014 6.01945e-014
lhumerus 58.9978 -8.99767 100.697
lradius 14.6064
lwrist -6.36644
lhand 8.80116 45.569
lfingers 7.12502
lthumb 33.9884 72.3553
rfemur -79.2345 -8.46789 46.2325
rtibia 32.2219
rfoot 0.158217 -7.23539
rtoes 6.57886
lfemur -55.8429 2.69799 -29.1302
ltibia 65.7197
lfoot -3.80971 -15.3433
ltoes 3.27626
950
root 10.8586 15.6797 -2.25105 327.478 -85.6978 -284.034
lowerback 12.9813 -1.1951 -3.41361
upperback 7.52201 -2.24097 1.52064
thorax 0.824002 -1.38733 3.77182
lowerneck -7.08169 0.964454 -3.38149
upperneck -21.4582 1.7469 7.79497
head -5.39068 0.176144 3.0549
rclavicle 1.03368e-014 8.79622e-015
rhumerus -8.46263 39.1648 -98.345
rradius 91.3065
rwrist -23.6933
rhand -36.5484 -0.0387861
rfingers 7.12502
rthumb -9.63894 -29.7983
lclavicle 1.03368e-014 8.79622e-015
lhumerus 58.9693 -9.12347 100.481
lradius 14.6661
lwrist -6.11272
lhand 9.01222 45.6035
lfingers 7.12502
lthumb 34.1889 72.3451
rfemur -79.4665 -8.45604 46.6338
rtibia 32.5383
rfoot 0.303514 -6.87624
rtoes 7.18455
lfemur -55.1885 2.73313 -29.466
ltibia 65.3157
lfoot -5.31238 -13.9753
ltoes 1.04273
951
root 10.9443 15.6306 -2.23178 321.929 -85.6909 -278.386
lowerback 12.9855 -1.07035 -3.88174
upperback 7.42338 -2.12304 1.61666
thorax 0.732156 -1.34026 4.1264
lowerneck -7.12368 0.928731 -3.48907
upperneck -21.3068 1.67037 7.61204
head -5.33241 0.166768 3.01324
rclavicle 2.27111e-014 5.46409e-014
rhumerus -8.52535 39.2244 -98.0768
rradius 91.3986
rwrist -23.7653
rhand -36.5681 -0.0639164
rfingers 7.12502
rthumb -9.65793 -29.8225
lclavicle 2.27111e-014 5.46409e-014
lhumerus 58.9095 -9.12184 100.487
lradius 14.8157
lwrist -5.77356
lhand 9.07 45.547
lfingers 7.12502
lthumb 34.2437 72.2763
rfemur -80.1573 -8.35139 46.8906
rtibia 32.8195
rfoot 0.453244 -6.15994
rtoes 7.22895
lfemur -54.9644 2.47415 -29.9971
ltibia 64.9722
lfoot -7.11509 -12.6877
ltoes -1.21063
952
root 11.0261 15.5981 -2.20941 320.299 -85.8837 -276.915
lowerback 13.1065 -1.02941 -3.86677
upperback 7.43035 -2.07459 1.75523
thorax 0.675423 -1.31937 4.26237
lowerneck -7.07611 1.08756 -3.60754
upperneck -21.2078 1.86562 7.39925
head -5.32157 0.292228 2.95808
rclavicle -2.88238e-014 -3.57067e-014
rhumerus -8.58912 39.2932 -97.9444
rradius 91.4672
rwrist -23.5467
rhand -36.6309 -0.298578
rfingers 7.12502
rthumb -9.71853 -30.0544
lclavicle -2.88238e-014 -3.57067e-014
lhumerus 58.8879 -8.99242 100.528
lradius 14.9082
lwrist -5.65533
lhand 8.8092 45.5419
lfingers 7.12502
lthumb 33.9961 72.3266
rfemur -80.5108 -8.44442 47.5414
rtibia 33.0239
rfoot 0.366636 -5.51724
rtoes 7.87897
lfemur -54.3974 2.2941 -30.1416
ltibia 64.554
lfoot -9.04317 -11.4018
ltoes -2.97142
953
root 11.1018 15.5748 -2.18344 323.262 -86.1564 -279.95
lowerback 13.0196 -1.10289 -3.39068
upperback 7.42334 -2.11584 1.87315
thorax 0.702829 -1.32821 4.1183
lowerneck -7.08729 1.27012 -3.5547
upperneck -21.1086 2.09505 7.2421
head -5.30155 0.416349 2.89115
rclavicle -2.26118e-014 -2.08227e-014
rhumerus -8.606 39.3856 -97.9212
rradius 91.4908
rwrist -23.4168
rhand -36.6829 -0.589575
rfingers 7.12502
rthumb -9.76869 -30.343
lclavicle -2.26118e-014 -2.08227e-014
lhumerus 58.8738 -8.87845 100.615
lradius 14.9316
lwrist -5.65676
lhand 8.72028 45.7543
lfingers 7.12502
lthumb 33.9116 72.5577
rfemur -80.943 -8.63607 48.4755
rtibia 33.1936
rfoot 0.269726 -4.96017
rtoes 8.48133
lfemur -53.9227 2.0474 -30.0043
ltibia 64.1363
lfoot -11.0142 -9.98227
ltoes -3.09011
954
root 11.176 15.5384 -2.17261 319.164 -86.6415 -275.545
lowerback 12.3866 -0.958318 -3.46618
upperback 7.35145 -1.90829 1.96122
thorax 0.952759 -1.23023 4.20948
lowerneck -7.092 1.23903 -3.58958
upperneck -21.0558 2.05308 7.26057
head -5.28197 0.398978 2.90318
rclavicle 5.51627e-015 3.36195e-014
rhumerus -8.6311 39.4539 -97.8778
rradius 91.5964
rwrist -23.5256
rhand -36.7703 -0.374733
rfingers 7.12502
rthumb -9.85308 -30.1242
lclavicle 5.51627e-015 3.36195e-014
lhumerus 58.8462 -8.69807 100.997
lradius 14.8356
lwrist -5.8861
lhand 8.79101 45.7165
lfingers 7.12502
lthumb 33.9788 72.505
rfemur -81.4404 -8.13952 49.187
rtibia 33.2364
rfoot 0.344465 -4.24512
rtoes 8.46201
lfemur -53.9419 2.21109 -30.0692
ltibia 63.7979
lfoot -12.9579 -8.36539
ltoes -3.28
955
root 11.2619 15.4944 -2.14712 316.893 -86.8148 -273.056
lowerback 12.0209 -0.942255 -3.37851
upperback 7.28036 -1.86151 2.01487
thorax 1.0684 -1.20369 4.20032
lowerneck -7.27565 1.13449 -3.69974
upperneck -20.7871 1.91627 7.33389
head -5.1605 0.347454 2.94488
rclavicle 1.92821e-014 -3.42904e-014
rhumerus -8.56079 39.4159 -97.7885
rradius 91.6609
rwrist -23.6503
rhand -36.7277 -0.18709
rfingers 7.12502
rthumb -9.81198 -29.9385
lclavicle 1.92821e-014 -3.42904e-014
lhumerus 58.8844 -8.38251 101.572
lradius 14.5962
lwrist -6.43908
lhand 8.77501 45.3814
lfingers 7.12502
lthumb 33.9636 72.1733
rfemur -82.0726 -7.93759 49.7574
rtibia 33.2845
rfoot 0.434804 -3.5285
rtoes 8.02581
lfemur -53.951 1.94128 -30.28
ltibia 63.5089
lfoot -14.7182 -6.41679
ltoes -4.52536
956
root 11.3514 15.4659 -2.12595 314.17 -87.0426 -270.393
lowerback 12.0818 -0.88844 -3.34074
upperback 7.23861 -1.78871 2.09169
thorax 0.985944 -1.16563 4.25484
lowerneck -7.10135 1.14528 -3.6497
upperneck -20.8439 1.92409 7.28741
head -5.20654 0.346786 2.92141
rclavicle -1.39149e-015 -1.93815e-015
rhumerus -8.52283 39.3206 -97.7921
rradius 91.583
rwrist -23.7952
rhand -36.5985 0.0640856
rfingers 7.12502
rthumb -9.68726 -29.6932
lclavicle -1.39149e-015 -1.93815e-015
lhumerus 58.8551 -8.16044 101.898
lradius 14.4942
lwrist -6.84586
lhand 8.79627 45.3465
lfingers 7.12502
lthumb 33.9838 72.1339
rfemur -82.3644 -7.76584 50.1582
rtibia 33.357
rfoot 0.468093 -3.0915
rtoes 8.30804
lfemur -53.6808 1.84308 -30.4702
ltibia 63.1967
lfoot -16.451 -4.50108
ltoes -5.39007
957
root 11.4339 15.4333 -2.10732 309.075 -87.1161 -265.634
lowerback 12.4216 -0.85219 -3.31885
upperback 7.29105 -1.75656 1.98404
thorax 0.850153 -1.1479 4.13584
lowerneck -6.55632 1.29128 -3.60207
upperneck -21.3575 2.12748 7.22889
head -5.46861 0.422877 2.89569
rclavicle 6.31141e-015 2.69602e-014
rhumerus -8.48565 39.2375 -97.9911
rradius 91.523
rwrist -23.7618
rhand -36.5893 0.243765
rfingers 7.12502
rthumb -9.67844 -29.5139
lclavicle 6.31141e-015 2.69602e-014
lhumerus 58.8084 -8.25713 101.607
lradius 14.6258
lwrist -6.69127
lhand 8.90276 45.5493
lfingers 7.12502
lthumb 34.0849 72.3142
rfemur -82.356 -7.66933 50.1174
rtibia 33.4166
rfoot 0.607261 -2.88737
rtoes 9.3541
lfemur -53.1268 1.85539 -30.8799
ltibia 62.8874
lfoot -17.9781 -2.66813
ltoes -5.87122
958
root 11.5144 15.3936 -2.09069 304.654 -87.0478 -261.496
lowerback 12.5736 -0.901153 -3.0622
upperback 7.45194 -1.81204 1.60425
thorax 0.918546 -1.16718 3.60007
lowerneck -6.33912 1.43922 -3.62223
upperneck -21.6891 2.37927 7.47284
head -5.62485 0.516469 2.97562
rclavicle 6.50336e-014 4.23163e-014
rhumerus -8.16374 39.0722 -98.3725
rradius 91.4954
rwrist -23.5014
rhand -36.7218 -0.259711
rfingers 7.12502
rthumb -9.80625 -30.0114
lclavicle 6.50336e-014 4.23163e-014
lhumerus 59.0394 -8.58647 100.756
lradius 14.6757
lwrist -6.26069
lhand 9.01191 45.5738
lfingers 7.12502
lthumb 34.1886 72.3155
rfemur -82.4071 -7.57257 49.8952
rtibia 33.4416
rfoot 0.760995 -2.7936
rtoes 9.79764
lfemur -52.6676 1.77911 -31.4067
ltibia 62.5535
lfoot -19.1426 -0.860756
ltoes -6.91609
